<?xml version="1.0" encoding="utf-8"?>
<!-- Generator: Adobe Illustrator 27.2.0, SVG Export Plug-In . SVG Version: 6.00 Build 0)  -->
<svg version="1.1" xmlns="http://www.w3.org/2000/svg" xmlns:xlink="http://www.w3.org/1999/xlink" x="0px" y="0px"
	 viewBox="0 0 514.7 262" style="enable-background:new 0 0 514.7 262;" xml:space="preserve">
<style type="text/css">
	.st0{fill:#FFFFFF;}
</style>
<g id="Capa_16">
	<title>Logo completo</title>
</g>
<g id="Capa_15">
</g>
<g id="Capa_14">
</g>
<g id="Capa_13">
</g>
<g id="Capa_12">
</g>
<g id="Capa_11">
</g>
<g id="Capa_10">
</g>
<g id="Capa_9">
</g>
<g id="Capa_8">
</g>
<g id="Capa_7">
</g>
<g id="Capa_6">
</g>
<g id="Capa_5">
</g>
<g id="Capa_4">
</g>
<g id="Capa_3">
</g>
<g id="Capa_2">
	<g>
		<path class="st0" d="M246.6,171.3c0.4-4.6-2.7-8.7-7.2-9.6c-4.4-1.3-9.2,0.3-12,4c-14.7,19.5-33.3,29.2-55.8,29.2
			c-23.6,0.6-45.9-10.5-59.6-29.7c-14.9-19.7-22.4-46.1-22.4-79c-0.6-13.9,2.8-27.6,9.6-39.7c6.6-10.7,15.1-16.2,25.4-16.6
			c8.6,0.3,16.6,4.7,21.5,11.8c6.4,7.9,11.5,16.8,15.1,26.3c4.1,10.3,10.3,19.6,18.2,27.3c7.7,8.2,18.2,13,29.4,13.5
			c12.8,0.3,22.1-2.3,27.9-8c5.7-5.6,8.9-13.3,8.7-21.3c0-22.1-10.4-40.1-31.1-54c-20.7-13.9-46.1-20.7-75.9-20.2
			C105,4.9,72.6,17.2,47.9,39.8c-24.8,22.6-37.2,52.9-37.1,90.9C10.4,164,23.7,196,47.5,219.4c24.5,24.8,55.7,37.2,93.8,37.2
			c32.5,0,58-8.4,76.6-25.2C235.5,216.3,245.9,194.5,246.6,171.3z"/>
		<path class="st0" d="M467.3,42.8c-24.5-24.9-55.8-37.4-94-37.5c-32.5,0-58.1,8.4-76.6,25.2C279,45.6,268.5,67.6,268,90.8
			c-0.5,4.6,2.6,8.9,7.2,9.8c4.5,1.2,9.3-0.5,12-4.3c14.7-19.4,33.4-29.1,55.8-29.1c23.5-0.6,45.8,10.5,59.5,29.7
			c14.9,19.7,22.4,46.1,22.4,79c0.6,13.8-2.8,27.6-9.6,39.6c-6.4,10.7-14.8,16.3-25.4,16.6c-8.6-0.3-16.6-4.7-21.5-11.8
			c-6.4-7.9-11.5-16.8-15.1-26.3c-4-10.2-10.1-19.4-17.9-27.2c-7.7-8.2-18.2-13-29.4-13.6c-12.7-0.4-22,2.4-27.9,8
			c-5.8,5.5-9,13.1-8.8,21.1c0,22.1,10.4,40.1,31.1,54.1s46,20.7,75.8,20.2c33.5,0.4,65.9-11.9,90.6-34.5
			c24.7-22.6,37.1-52.9,37.2-91C504.2,97.9,490.9,66.1,467.3,42.8z"/>
	</g>
</g>
</svg>
